<svg xmlns="http://www.w3.org/2000/svg" viewBox="0 0 480 300" width="100%" role="img" aria-labelledby="title"><title id="title">Quỹ đạo ném xiên với tốc độ đầu 20 mét mỗi giây và góc 30 độ</title><rect width="480" height="300" rx="12" fill="#ffffff"/><g font-family="system-ui, Segoe UI, sans-serif"><text x="24" y="31" font-size="17" fill="#1f1c2b" text-anchor="start">Ném xiên, bỏ lực cản</text><line x1="55" y1="245" x2="445" y2="245" stroke="#1f1c2b" stroke-width="1.5"/><line x1="55" y1="245" x2="55" y2="57" stroke="#1f1c2b" stroke-width="1.5"/><line x1="55" y1="245" x2="55" y2="249" stroke="#1f1c2b" stroke-width="1.5"/><text x="55" y="270" font-size="17" fill="#1f1c2b" text-anchor="middle">0.0</text><line x1="240.0" y1="245" x2="240.0" y2="249" stroke="#1f1c2b" stroke-width="1.5"/><text x="240.0" y="270" font-size="17" fill="#1f1c2b" text-anchor="middle">17.7</text><line x1="425" y1="245" x2="425" y2="249" stroke="#1f1c2b" stroke-width="1.5"/><text x="425" y="270" font-size="17" fill="#1f1c2b" text-anchor="middle">35.3</text><text x="445" y="289" font-size="17" fill="#1f1c2b" text-anchor="end">x (m)</text><text x="19" y="66" font-size="17" fill="#1f1c2b" text-anchor="start">y (m)</text><text x="47" y="250" font-size="17" fill="#1f1c2b" text-anchor="end">0</text><text x="47" y="86" font-size="17" fill="#1f1c2b" text-anchor="end">5.10</text><line x1="55" y1="80" x2="430" y2="80" stroke="#dcd8e8" stroke-width="1.5" stroke-dasharray="5 5"/><path d="M55.00,245.00 L58.70,238.47 L62.40,232.06 L66.10,225.79 L69.80,219.66 L73.50,213.65 L77.20,207.78 L80.90,202.03 L84.60,196.42 L88.30,190.95 L92.00,185.60 L95.70,180.39 L99.40,175.30 L103.10,170.35 L106.80,165.54 L110.50,160.85 L114.20,156.30 L117.90,151.87 L121.60,147.58 L125.30,143.43 L129.00,139.40 L132.70,135.51 L136.40,131.74 L140.10,128.11 L143.80,124.62 L147.50,121.25 L151.20,118.02 L154.90,114.91 L158.60,111.94 L162.30,109.11 L166.00,106.40 L169.70,103.83 L173.40,101.38 L177.10,99.07 L180.80,96.90 L184.50,94.85 L188.20,92.94 L191.90,91.15 L195.60,89.50 L199.30,87.99 L203.00,86.60 L206.70,85.35 L210.40,84.22 L214.10,83.23 L217.80,82.38 L221.50,81.65 L225.20,81.06 L228.90,80.59 L232.60,80.26 L236.30,80.07 L240.00,80.00 L243.70,80.07 L247.40,80.26 L251.10,80.59 L254.80,81.06 L258.50,81.65 L262.20,82.38 L265.90,83.23 L269.60,84.22 L273.30,85.35 L277.00,86.60 L280.70,87.99 L284.40,89.50 L288.10,91.15 L291.80,92.94 L295.50,94.85 L299.20,96.90 L302.90,99.07 L306.60,101.38 L310.30,103.83 L314.00,106.40 L317.70,109.11 L321.40,111.94 L325.10,114.91 L328.80,118.02 L332.50,121.25 L336.20,124.62 L339.90,128.11 L343.60,131.74 L347.30,135.51 L351.00,139.40 L354.70,143.43 L358.40,147.58 L362.10,151.87 L365.80,156.30 L369.50,160.85 L373.20,165.54 L376.90,170.35 L380.60,175.30 L384.30,180.39 L388.00,185.60 L391.70,190.95 L395.40,196.42 L399.10,202.03 L402.80,207.78 L406.50,213.65 L410.20,219.66 L413.90,225.79 L417.60,232.06 L421.30,238.47 L425.00,245.00" fill="none" stroke="#5a37a8" stroke-width="3"/><text x="240" y="64" font-size="15" fill="#1f1c2b" text-anchor="middle">đỉnh: chỉ vận tốc đứng bằng 0</text></g></svg>
